<?xml version="1.0" standalone="no"?>
<!DOCTYPE svg PUBLIC "-//W3C//DTD SVG 1.1//EN" "http://www.w3.org/Graphics/SVG/1.1/DTD/svg11.dtd">

<svg width="135" height="50" viewBox="0 0 135 50" preserveAspectRatio="none" 
  xmlns="http://www.w3.org/2000/svg"
  xmlns:xlink="http://www.w3.org/1999/xlink">


<polyline points="0.0, 36.69135938097089 0.8035714285714285, 36.95587054930759 1.607142857142857, 37.5740306876197 2.4107142857142856, 38.07172133703189 3.214285714285714, 38.151234569639485 4.017857142857142, 38.99234945136933 4.821428571428571, 37.51440792985557 5.625, 36.698457515919 6.428571428571428, 38.1512845172014 7.232142857142857, 35.10692622994851 8.035714285714285, 50.0 8.839285714285715, 47.74921703433623 9.642857142857142, 48.51486398109422 10.446428571428571, 48.155023666416255 11.25, 47.303388298351564 12.053571428571429, 46.61414151170663 12.857142857142856, 42.177816304419416 13.660714285714286, 41.93268115727062 14.464285714285714, 38.723487142771226 15.267857142857142, 35.69827489012458 16.07142857142857, 30.028599359152388 16.875, 36.514421587360545 17.67857142857143, 34.48158936173082 18.482142857142858, 32.19024898022419 19.285714285714285, 37.1657292150063 20.089285714285715, 36.52114007484019 20.892857142857142, 37.95361753860475 21.696428571428573, 38.38577215093474 22.5, 38.11842020079779 23.303571428571427, 37.943076337450336 24.107142857142858, 37.18448403432086 24.91071428571429, 38.61417240158333 25.71428571428571, 39.12727243238099 26.517857142857142, 41.95173556474877 27.321428571428573, 45.100633185187185 28.125, 42.840730724412545 28.928571428571427, 42.07910425136595 29.732142857142858, 44.769905913711135 30.535714285714285, 42.45727627626175 31.339285714285715, 42.06512001445323 32.14285714285714, 39.24289372819451 32.94642857142857, 44.10524638253935 33.75, 47.479922244339974 34.55357142857142, 44.74767048155008 35.35714285714286, 43.201707755437916 36.160714285714285, 41.77045831913029 36.964285714285715, 41.72898768506595 37.767857142857146, 42.525599046251855 38.57142857142857, 45.46359842806746 39.375, 42.83252376693574 40.17857142857143, 41.437424588620146 40.982142857142854, 42.661607929085065 41.785714285714285, 38.99123834651467 42.589285714285715, 41.636154751813834 43.392857142857146, 40.07442141441683 44.19642857142857, 40.1843852358994 45.0, 40.80803023918026 45.80357142857143, 40.47447896049195 46.607142857142854, 39.419637596935644 47.410714285714285, 38.602858994955696 48.214285714285715, 42.14870036242209 49.01785714285714, 39.25669343525725 49.82142857142858, 42.23268607970644 50.625, 42.37620862790261 51.42857142857142, 42.75029265248334 52.23214285714286, 44.14748905184809 53.035714285714285, 46.34254819094577 53.839285714285715, 46.11071993028709 54.642857142857146, 44.6885679485314 55.44642857142857, 44.57938110234013 56.25, 44.15550112283121 57.05357142857143, 43.265691435529696 57.857142857142854, 42.291528266138016 58.660714285714285, 43.64542311620828 59.464285714285715, 42.388970695832576 60.267857142857146, 41.267823773848114 61.07142857142857, 40.01466280426898 61.875, 41.39911269415633 62.67857142857143, 39.705858432647204 63.482142857142854, 39.01699541799814 64.28571428571428, 37.11008568482206 65.08928571428572, 37.54852040586232 65.89285714285714, 39.11055542052486 66.69642857142857, 39.09888470281687 67.5, 38.01477456663864 68.30357142857143, 36.715283958770875 69.10714285714285, 36.79139334552524 69.91071428571429, 37.32538553795101 70.71428571428572, 35.71991935116032 71.51785714285714, 34.87607406962614 72.32142857142857, 34.16841403999999 73.125, 35.93178399662916 73.92857142857143, 36.56660386343769 74.73214285714286, 39.045663312395604 75.53571428571429, 38.14655063177738 76.33928571428571, 38.04121808485327 77.14285714285714, 38.34502266148473 77.94642857142857, 44.267241353004806 78.75, 43.11780552886993 79.55357142857143, 37.58726471362773 80.35714285714286, 37.68430412272062 81.16071428571428, 37.80869636437402 81.96428571428571, 40.43129033173269 82.76785714285715, 40.28377978212948 83.57142857142857, 38.73618428421378 84.375, 37.711201778386325 85.17857142857143, 35.94991134321467 85.98214285714285, 37.32965402943449 86.78571428571429, 37.48192724187757 87.58928571428572, 34.37330241788621 88.39285714285714, 33.007736391786494 89.19642857142857, 24.11744858271304 90.0, 16.248501137610962 90.80357142857143, 27.769934309933237 91.60714285714286, 29.055962268378554 92.41071428571429, 30.35193401527035 93.21428571428571, 32.78423279479669 94.01785714285714, 34.80854034906747 94.82142857142857, 34.14606075106517 95.625, 33.5387348789365 96.42857142857143, 36.666231307283326 97.23214285714286, 37.489348400393006 98.03571428571428, 34.728986685431735 98.83928571428571, 33.46654404535697 99.64285714285715, 33.939119792408825 100.44642857142857, 34.2468903602544 101.25, 38.83676401907245 102.05357142857143, 38.515792905863165 102.85714285714285, 38.592556578794245 103.66071428571429, 37.557229783353094 104.46428571428572, 37.653687433809544 105.26785714285714, 37.17823545118342 106.07142857142857, 38.6111497451887 106.875, 33.692980885010435 107.67857142857143, 21.134505719795328 108.48214285714286, 14.9616412632574 109.28571428571429, 1.3165640296722274 110.08928571428571, 2.763024311765498 110.89285714285714, 0.0 111.69642857142857, 1.4194543615856081 112.5, 1.8064354720826454 113.30357142857143, 9.243630973649335 114.10714285714286, 24.45610784029959 114.91071428571428, 18.17001857180429 115.71428571428571, 12.53700190903716 116.51785714285715, 4.1638516953945155 117.32142857142857, 16.781619170653332 118.125, 20.954150364156284 118.92857142857143, 20.790910252512365 119.73214285714285, 16.159834427603414 120.53571428571429, 20.447904143506328 121.33928571428572, 18.872461108881083 122.14285714285714, 25.088120464414377 122.94642857142857, 25.635347502377815 123.75, 25.172810748631356 124.55357142857143, 24.62704424979049 125.35714285714286, 26.681047644838934 126.16071428571429, 22.140383586159732 126.96428571428571, 19.1936988529444 127.76785714285714, 20.85945243597532 128.57142857142856, 27.858883803995273 129.375, 32.95911514389861 130.17857142857144, 29.97572233114113 130.98214285714286, 29.218973798569415 131.78571428571428, 19.535426061455034 132.5892857142857, 15.331212932416705 133.39285714285714, 15.863220599338735 134.19642857142858, 16.46490373094584 135.0, 20.010358360470168" fill="none" stroke="#32ca5b" stroke-width="1.25"/>

</svg>