<?xml version="1.0" standalone="no"?>
<!DOCTYPE svg PUBLIC "-//W3C//DTD SVG 1.1//EN" "http://www.w3.org/Graphics/SVG/1.1/DTD/svg11.dtd">

<svg width="135" height="50" viewBox="0 0 135 50" preserveAspectRatio="none" 
  xmlns="http://www.w3.org/2000/svg"
  xmlns:xlink="http://www.w3.org/1999/xlink">


<polyline points="0.0, 47.40423353123358 0.8035714285714285, 46.10026404203554 1.607142857142857, 45.65839750545891 2.4107142857142856, 44.90053696793622 3.214285714285714, 45.99200202410266 4.017857142857142, 44.72984614787985 4.821428571428571, 43.0634258949714 5.625, 42.416688156649165 6.428571428571428, 42.61347734698268 7.232142857142857, 43.84669883378578 8.035714285714285, 44.00331189381508 8.839285714285715, 44.33224326483303 9.642857142857142, 44.16882787281294 10.446428571428571, 42.97900201485953 11.25, 44.018422472072636 12.053571428571429, 48.71570792954561 12.857142857142856, 46.22561728392441 13.660714285714286, 42.063033964516414 14.464285714285714, 40.64455737980094 15.267857142857142, 42.292984856237695 16.07142857142857, 46.04919613710699 16.875, 46.12195034010565 17.67857142857143, 45.323893065867956 18.482142857142858, 46.10368746343666 19.285714285714285, 46.27876040885345 20.089285714285715, 46.99437684750992 20.892857142857142, 46.428768542877876 21.696428571428573, 46.26661362274784 22.5, 46.23812386813439 23.303571428571427, 46.62900235931061 24.107142857142858, 47.21233399793274 24.91071428571429, 46.90508796899186 25.71428571428571, 46.22139679167338 26.517857142857142, 45.77035012267248 27.321428571428573, 45.29744336441301 28.125, 46.218979466000455 28.928571428571427, 44.90497515551778 29.732142857142858, 44.25991261830573 30.535714285714285, 44.16263965863247 31.339285714285715, 45.21457595831642 32.14285714285714, 46.41152738047849 32.94642857142857, 45.75642817015338 33.75, 44.69038768112548 34.55357142857142, 44.237967505485564 35.35714285714286, 44.47311598388934 36.160714285714285, 44.402869317702375 36.964285714285715, 43.52116702425069 37.767857142857146, 44.308346604073584 38.57142857142857, 45.156503729608524 39.375, 45.67455458094479 40.17857142857143, 45.20409779146461 40.982142857142854, 44.52351217894488 41.785714285714285, 43.335119045766454 42.589285714285715, 42.19248188102663 43.392857142857146, 42.44440309576748 44.19642857142857, 43.54134192249374 45.0, 42.7275857424321 45.80357142857143, 42.47606247032836 46.607142857142854, 43.23006283904419 47.410714285714285, 43.630416518613956 48.214285714285715, 43.72367373545917 49.01785714285714, 43.59566662221215 49.82142857142858, 42.15351216674934 50.625, 41.934080459664216 51.42857142857142, 41.75093234986325 52.23214285714286, 42.89717891172134 53.035714285714285, 39.330415227272226 53.839285714285715, 39.6171708595411 54.642857142857146, 39.91386357351683 55.44642857142857, 39.946430764801974 56.25, 38.94891703178187 57.05357142857143, 39.255017725375495 57.857142857142854, 40.22179263721484 58.660714285714285, 40.873711714838784 59.464285714285715, 39.5398352798547 60.267857142857146, 39.64240548151821 61.07142857142857, 40.765397835508736 61.875, 39.989462422842095 62.67857142857143, 40.721452943865124 63.482142857142854, 41.79822042142065 64.28571428571428, 43.88054268431674 65.08928571428572, 45.03500827818211 65.89285714285714, 44.75423664231177 66.69642857142857, 47.77554120077193 67.5, 48.666871439527185 68.30357142857143, 47.77587554224814 69.10714285714285, 47.391891743053485 69.91071428571429, 46.88881449834452 70.71428571428572, 48.243391205829646 71.51785714285714, 46.82571803953209 72.32142857142857, 47.136350455360784 73.125, 46.78200673418444 73.92857142857143, 45.85548891759486 74.73214285714286, 45.172840274417645 75.53571428571429, 45.31574892231327 76.33928571428571, 46.6482852905901 77.14285714285714, 45.69962591521609 77.94642857142857, 40.59645618586666 78.75, 37.46035173503012 79.55357142857143, 36.47979268810117 80.35714285714286, 35.72056460886569 81.16071428571428, 35.141417320610756 81.96428571428571, 33.25805394577741 82.76785714285715, 33.17075259999467 83.57142857142857, 33.75716746271048 84.375, 33.0753397111488 85.17857142857143, 34.4280461370964 85.98214285714285, 35.99361608779765 86.78571428571429, 37.8774217155837 87.58928571428572, 38.17115298296292 88.39285714285714, 39.369706263547464 89.19642857142857, 36.69142076338951 90.0, 38.38158340544034 90.80357142857143, 43.877577313390304 91.60714285714286, 46.69477955296489 92.41071428571429, 48.69806933179451 93.21428571428571, 48.04798888097797 94.01785714285714, 47.94885290906118 94.82142857142857, 47.61611392832282 95.625, 47.56161532798945 96.42857142857143, 47.214190428713096 97.23214285714286, 50.0 98.03571428571428, 45.605769129440404 98.83928571428571, 47.76939542997927 99.64285714285715, 46.805519584072414 100.44642857142857, 47.057712522288426 101.25, 46.26702485233511 102.05357142857143, 46.746197458788444 102.85714285714285, 39.244735717610986 103.66071428571429, 37.40173060570239 104.46428571428572, 37.794629427157176 105.26785714285714, 37.29256546246252 106.07142857142857, 36.8046362419638 106.875, 35.70355406215647 107.67857142857143, 34.70428046518971 108.48214285714286, 28.633512341920465 109.28571428571429, 22.34918764286474 110.08928571428571, 24.260443188621668 110.89285714285714, 22.558254295427563 111.69642857142857, 21.99734610236323 112.5, 24.359513235462558 113.30357142857143, 23.47998384497421 114.10714285714286, 12.489198690127818 114.91071428571428, 13.500755066752653 115.71428571428571, 11.266789121995592 116.51785714285715, 12.591020799079583 117.32142857142857, 9.521189335131803 118.125, 4.210313368727287 118.92857142857143, 3.9192382851033902 119.73214285714285, 2.1388542632958973 120.53571428571429, 3.6019248163272346 121.33928571428572, 4.611987984611641 122.14285714285714, 5.052909806379251 122.94642857142857, 4.502662706812521 123.75, 5.291469698788215 124.55357142857143, 2.4441368108735144 125.35714285714286, 3.5716305894731515 126.16071428571429, 0.0 126.96428571428571, 4.11501661525102 127.76785714285714, 4.622064833457505 128.57142857142856, 4.827504456344137 129.375, 4.180403033867977 130.17857142857144, 2.9864138224412797 130.98214285714286, 3.459641718812186 131.78571428571428, 5.698020359962748 132.5892857142857, 3.4768215625181105 133.39285714285714, 4.4146357806910235 134.19642857142858, 2.1053091829650086 135.0, 3.6959798740785588" fill="none" stroke="#32ca5b" stroke-width="1.25"/>

</svg>