<?xml version="1.0" standalone="no"?>
<!DOCTYPE svg PUBLIC "-//W3C//DTD SVG 1.1//EN" "http://www.w3.org/Graphics/SVG/1.1/DTD/svg11.dtd">

<svg width="135" height="50" viewBox="0 0 135 50" preserveAspectRatio="none" 
  xmlns="http://www.w3.org/2000/svg"
  xmlns:xlink="http://www.w3.org/1999/xlink">


<polyline points="0.0, 50.0 0.8035714285714285, 49.79258573860052 1.607142857142857, 48.276779439665276 2.4107142857142856, 49.080954839631374 3.214285714285714, 48.78884679007541 4.017857142857142, 48.257966220786805 4.821428571428571, 45.510979389183525 5.625, 44.05853213896112 6.428571428571428, 45.29174734665521 7.232142857142857, 47.08310467542211 8.035714285714285, 47.021281951958876 8.839285714285715, 47.75133411350292 9.642857142857142, 46.031788912281435 10.446428571428571, 44.34085914836196 11.25, 44.99905088654273 12.053571428571429, 48.47144531905508 12.857142857142856, 45.38211107111027 13.660714285714286, 42.0220848328482 14.464285714285714, 41.2163054630442 15.267857142857142, 43.034139668101616 16.07142857142857, 46.00067168867884 16.875, 44.17496655481137 17.67857142857143, 44.49888798412824 18.482142857142858, 45.78255092962753 19.285714285714285, 47.17589531416679 20.089285714285715, 48.48997755186015 20.892857142857142, 47.890804378327104 21.696428571428573, 48.441468844900434 22.5, 48.845691618471534 23.303571428571427, 48.31590444787652 24.107142857142858, 48.467278078058804 24.91071428571429, 48.109239076707055 25.71428571428571, 47.95635750323004 26.517857142857142, 47.400510998503776 27.321428571428573, 47.50447763067601 28.125, 49.147001914137036 28.928571428571427, 47.620778619754 29.732142857142858, 46.68760454932637 30.535714285714285, 46.44205364051454 31.339285714285715, 46.763786261294 32.14285714285714, 47.3550647476318 32.94642857142857, 45.16068561121243 33.75, 42.340958324123896 34.55357142857142, 41.61742832068954 35.35714285714286, 41.743755942092726 36.160714285714285, 41.40604454871778 36.964285714285715, 40.2024081091879 37.767857142857146, 41.3105609220422 38.57142857142857, 41.38159126154518 39.375, 40.566301665824625 40.17857142857143, 39.84517399800242 40.982142857142854, 38.59924483934342 41.785714285714285, 38.95795994871718 42.589285714285715, 38.948913447853876 43.392857142857146, 39.29598967379091 44.19642857142857, 40.40952160207936 45.0, 39.87363178905532 45.80357142857143, 39.683310392384875 46.607142857142854, 40.444604784624275 47.410714285714285, 41.336397993499084 48.214285714285715, 41.602198422322836 49.01785714285714, 41.53840594928917 49.82142857142858, 41.50000504235884 50.625, 43.21897886976383 51.42857142857142, 43.96353520918683 52.23214285714286, 45.184791017271166 53.035714285714285, 42.759738904651826 53.839285714285715, 42.196199925793195 54.642857142857146, 41.515111892267086 55.44642857142857, 40.67978506282636 56.25, 40.17309356084884 57.05357142857143, 40.020983495790496 57.857142857142854, 41.12177636409342 58.660714285714285, 40.148967940503326 59.464285714285715, 38.32644404293366 60.267857142857146, 38.58376228509733 61.07142857142857, 39.65765686729753 61.875, 39.09819125771098 62.67857142857143, 39.468960000442735 63.482142857142854, 41.20043249989718 64.28571428571428, 42.63450180675459 65.08928571428572, 44.00806261798874 65.89285714285714, 44.53101571714828 66.69642857142857, 48.43440397238174 67.5, 48.25683184748141 68.30357142857143, 47.326335491379574 69.10714285714285, 47.57638656735954 69.91071428571429, 46.941955006960534 70.71428571428572, 49.43880505160034 71.51785714285714, 47.80991067461735 72.32142857142857, 47.51954920639643 73.125, 47.30678095906735 73.92857142857143, 45.97891719450119 74.73214285714286, 44.51685553902452 75.53571428571429, 44.67417504174646 76.33928571428571, 45.94954049015606 77.14285714285714, 45.08732371032847 77.94642857142857, 37.17696968186347 78.75, 35.670371703271165 79.55357142857143, 36.62333598780697 80.35714285714286, 36.35352947759749 81.16071428571428, 34.33502503957346 81.96428571428571, 33.53591666665736 82.76785714285715, 33.12533947148616 83.57142857142857, 33.04299189149971 84.375, 31.555275190908755 85.17857142857143, 31.052329165512944 85.98214285714285, 32.716902943788575 86.78571428571429, 35.44726887658994 87.58928571428572, 34.533418179673276 88.39285714285714, 34.21840338211751 89.19642857142857, 33.31858119533485 90.0, 37.16563923613078 90.80357142857143, 44.96336209469538 91.60714285714286, 44.74105884527619 92.41071428571429, 45.18993081387485 93.21428571428571, 43.96341818782339 94.01785714285714, 44.12505246968005 94.82142857142857, 44.24239322040888 95.625, 44.84574728961259 96.42857142857143, 43.677874517396496 97.23214285714286, 44.45828038035333 98.03571428571428, 40.40188493817569 98.83928571428571, 43.30175420273492 99.64285714285715, 43.21357473474639 100.44642857142857, 43.9094932561634 101.25, 42.00666667440821 102.05357142857143, 42.497416176444844 102.85714285714285, 38.71875122435851 103.66071428571429, 36.09233769080463 104.46428571428572, 35.293141089882155 105.26785714285714, 34.993195274086794 106.07142857142857, 34.852820874428964 106.875, 34.74951806197874 107.67857142857143, 30.725494788732497 108.48214285714286, 23.534846690218377 109.28571428571429, 27.61552374445353 110.08928571428571, 27.381175798443262 110.89285714285714, 25.655202834604985 111.69642857142857, 25.84788347486386 112.5, 26.338289299225693 113.30357142857143, 27.290471749343425 114.10714285714286, 19.485291890428904 114.91071428571428, 17.009116871822634 115.71428571428571, 14.192896098629157 116.51785714285715, 14.74603483286413 117.32142857142857, 14.85345916155608 118.125, 9.637919559218004 118.92857142857143, 8.100830274471885 119.73214285714285, 5.221433266160233 120.53571428571429, 6.933710480614186 121.33928571428572, 6.3444974974373585 122.14285714285714, 4.884563681740036 122.94642857142857, 2.3089472155311803 123.75, 0.0 124.55357142857143, 3.0754067063148405 125.35714285714286, 3.287804313527898 126.16071428571429, 0.011770733347701786 126.96428571428571, 1.1015398970882675 127.76785714285714, 3.935641576287283 128.57142857142856, 6.117888391248054 129.375, 2.393199126399174 130.17857142857144, 1.3978691696718428 130.98214285714286, 1.5277832432288045 131.78571428571428, 4.974512566254234 132.5892857142857, 3.7220236424890847 133.39285714285714, 5.996824064301442 134.19642857142858, 4.197128527249877 135.0, 7.681938508493167" fill="none" stroke="#32ca5b" stroke-width="1.25"/>

</svg>