<?xml version="1.0" standalone="no"?>
<!DOCTYPE svg PUBLIC "-//W3C//DTD SVG 1.1//EN" "http://www.w3.org/Graphics/SVG/1.1/DTD/svg11.dtd">

<svg width="135" height="50" viewBox="0 0 135 50" preserveAspectRatio="none" 
  xmlns="http://www.w3.org/2000/svg"
  xmlns:xlink="http://www.w3.org/1999/xlink">


<polyline points="0.0, 48.85640998543215 0.8035714285714285, 47.84495738220302 1.607142857142857, 47.7179918004618 2.4107142857142856, 48.523486799166285 3.214285714285714, 50.0 4.017857142857142, 49.35105843786635 4.821428571428571, 49.07078814926732 5.625, 48.053554434048436 6.428571428571428, 47.842190818416235 7.232142857142857, 48.95484556326028 8.035714285714285, 44.726304532866514 8.839285714285715, 44.96080164602622 9.642857142857142, 44.194608337089974 10.446428571428571, 42.548746460696044 11.25, 42.10175559960284 12.053571428571429, 43.79506333634773 12.857142857142856, 39.645374253541775 13.660714285714286, 37.13116045559951 14.464285714285714, 36.50502527728794 15.267857142857142, 36.490993350256105 16.07142857142857, 38.6409126361481 16.875, 37.65219571135146 17.67857142857143, 36.80375796009606 18.482142857142858, 37.83115527983791 19.285714285714285, 39.20634250183287 20.089285714285715, 40.512259988798995 20.892857142857142, 40.654783435221226 21.696428571428573, 40.07972963966872 22.5, 38.274122777352744 23.303571428571427, 40.125979150840436 24.107142857142858, 41.11914996156331 24.91071428571429, 40.79989791728369 25.71428571428571, 40.630684871471814 26.517857142857142, 39.74058012352523 27.321428571428573, 39.63760562326338 28.125, 40.50818290273032 28.928571428571427, 37.33079980598308 29.732142857142858, 36.799707318106975 30.535714285714285, 36.28224370639395 31.339285714285715, 36.28532419525818 32.14285714285714, 34.07443604361891 32.94642857142857, 31.830748117926404 33.75, 32.08591290850638 34.55357142857142, 31.92908916342782 35.35714285714286, 35.90713953085626 36.160714285714285, 35.12219837174095 36.964285714285715, 33.306345189284855 37.767857142857146, 33.939346107445786 38.57142857142857, 36.75446972092587 39.375, 36.38569680111039 40.17857142857143, 35.92998166581448 40.982142857142854, 35.713753325920166 41.785714285714285, 35.07632395806321 42.589285714285715, 34.56153356538849 43.392857142857146, 34.769489889292885 44.19642857142857, 35.726151206389176 45.0, 35.21028001046378 45.80357142857143, 34.7139156434049 46.607142857142854, 36.7359614893441 47.410714285714285, 38.73229910583398 48.214285714285715, 37.94300174407671 49.01785714285714, 41.484161490440115 49.82142857142858, 39.75677983991245 50.625, 40.37413170767334 51.42857142857142, 39.89261668806881 52.23214285714286, 41.45655826786744 53.035714285714285, 39.487441839200386 53.839285714285715, 38.28724851022145 54.642857142857146, 37.8959789388547 55.44642857142857, 38.048277147759485 56.25, 37.12053960685713 57.05357142857143, 35.03976124649426 57.857142857142854, 36.58379575190217 58.660714285714285, 34.65412954183783 59.464285714285715, 35.65781723101013 60.267857142857146, 36.018732762339454 61.07142857142857, 35.6385254486984 61.875, 33.11472682655775 62.67857142857143, 33.068915705472904 63.482142857142854, 34.315141663172064 64.28571428571428, 34.19542362725526 65.08928571428572, 33.48696973730547 65.89285714285714, 35.68166954158737 66.69642857142857, 38.61913283613668 67.5, 39.243964114878814 68.30357142857143, 37.37101633494514 69.10714285714285, 39.06029440094427 69.91071428571429, 38.72202391314471 70.71428571428572, 41.27159806318042 71.51785714285714, 40.01666437332271 72.32142857142857, 40.21368048900085 73.125, 40.621604474339854 73.92857142857143, 39.62405706600503 74.73214285714286, 38.918655418982986 75.53571428571429, 37.24950720046085 76.33928571428571, 39.095828753642856 77.14285714285714, 35.16079284580103 77.94642857142857, 28.989583643202593 78.75, 25.13077137105527 79.55357142857143, 25.876031733050347 80.35714285714286, 22.90830732307778 81.16071428571428, 21.017569065602526 81.96428571428571, 16.63500004411924 82.76785714285715, 17.763657823331236 83.57142857142857, 19.72608500970699 84.375, 18.26455115098265 85.17857142857143, 19.656524555671744 85.98214285714285, 20.989043507260753 86.78571428571429, 24.39845268781677 87.58928571428572, 23.567958530440638 88.39285714285714, 22.695553606550092 89.19642857142857, 19.87120193809431 90.0, 20.044519881161357 90.80357142857143, 26.017634387807774 91.60714285714286, 30.769370543155038 92.41071428571429, 29.358468783611563 93.21428571428571, 29.55735959114491 94.01785714285714, 30.705242117934674 94.82142857142857, 29.988086050087144 95.625, 30.027570569632562 96.42857142857143, 29.64145157115457 97.23214285714286, 27.38441276162406 98.03571428571428, 22.700587255932017 98.83928571428571, 26.280979444905867 99.64285714285715, 25.054173835068887 100.44642857142857, 25.931012357560707 101.25, 24.9037109725686 102.05357142857143, 23.869325703122858 102.85714285714285, 19.9560399767528 103.66071428571429, 17.385364388936853 104.46428571428572, 18.299865316624174 105.26785714285714, 16.475454320851014 106.07142857142857, 17.62416001093568 106.875, 16.461545356647324 107.67857142857143, 15.48718038976996 108.48214285714286, 11.568110159562409 109.28571428571429, 11.70430425583383 110.08928571428571, 14.469456335166667 110.89285714285714, 14.15145877830802 111.69642857142857, 13.028486583208664 112.5, 14.165423210747788 113.30357142857143, 14.775557267023432 114.10714285714286, 8.754162335986123 114.91071428571428, 6.707550991284034 115.71428571428571, 0.0 116.51785714285715, 3.8939380115959126 117.32142857142857, 7.335410510059324 118.125, 5.122712714107972 118.92857142857143, 4.329955699293983 119.73214285714285, 2.075782318692518 120.53571428571429, 1.3723012904993648 121.33928571428572, 0.732940305415292 122.14285714285714, 2.7046374585346338 122.94642857142857, 5.0987634697951565 123.75, 8.335565231616958 124.55357142857143, 10.134570023535519 125.35714285714286, 10.182277083478404 126.16071428571429, 10.424518157352269 126.96428571428571, 12.841142927733035 127.76785714285714, 14.631240707953562 128.57142857142856, 17.300354555458565 129.375, 16.518064702592948 130.17857142857144, 16.079189969543574 130.98214285714286, 16.492136548756093 131.78571428571428, 21.19444181076141 132.5892857142857, 20.070882631213323 133.39285714285714, 17.153406763890086 134.19642857142858, 16.084204030077938 135.0, 19.35863039345718" fill="none" stroke="#32ca5b" stroke-width="1.25"/>

</svg>