<?xml version="1.0" standalone="no"?>
<!DOCTYPE svg PUBLIC "-//W3C//DTD SVG 1.1//EN" "http://www.w3.org/Graphics/SVG/1.1/DTD/svg11.dtd">

<svg width="135" height="50" viewBox="0 0 135 50" preserveAspectRatio="none" 
  xmlns="http://www.w3.org/2000/svg"
  xmlns:xlink="http://www.w3.org/1999/xlink">


<polyline points="0.0, 49.70876723448544 0.8035714285714285, 49.17258594176251 1.607142857142857, 48.5905696993265 2.4107142857142856, 48.858413144359744 3.214285714285714, 50.0 4.017857142857142, 49.436253323960834 4.821428571428571, 47.93255908345976 5.625, 46.20392485386159 6.428571428571428, 46.80240912638266 7.232142857142857, 47.70804798099951 8.035714285714285, 47.834349164671494 8.839285714285715, 48.349068875132936 9.642857142857142, 46.734506879446094 10.446428571428571, 46.33873346535913 11.25, 47.316666596576134 12.053571428571429, 49.42692157937943 12.857142857142856, 47.463202167476496 13.660714285714286, 45.63887888100267 14.464285714285714, 44.50562576918172 15.267857142857142, 44.65518085407757 16.07142857142857, 45.86429040389595 16.875, 44.59601827169139 17.67857142857143, 44.8626830450773 18.482142857142858, 45.928361544149986 19.285714285714285, 45.396114414297685 20.089285714285715, 46.04809088408351 20.892857142857142, 45.46747251149077 21.696428571428573, 45.734859432266326 22.5, 46.014965198325726 23.303571428571427, 46.624692512903515 24.107142857142858, 46.690634449454635 24.91071428571429, 46.50200182730701 25.71428571428571, 46.880227029777046 26.517857142857142, 46.94703136482802 27.321428571428573, 47.342863999376675 28.125, 47.57238831525377 28.928571428571427, 47.111589119364005 29.732142857142858, 46.990029587641004 30.535714285714285, 47.35616026939874 31.339285714285715, 47.36395435346705 32.14285714285714, 48.13781814377718 32.94642857142857, 47.780936606469986 33.75, 47.35750588193979 34.55357142857142, 47.082790942151306 35.35714285714286, 47.39176107804396 36.160714285714285, 47.58747260127678 36.964285714285715, 47.12969136852435 37.767857142857146, 47.529746988614995 38.57142857142857, 47.820042549961585 39.375, 47.905720783053525 40.17857142857143, 47.3839954528159 40.982142857142854, 46.34771657109806 41.785714285714285, 45.75345255412005 42.589285714285715, 44.94538842397725 43.392857142857146, 44.821575708241674 44.19642857142857, 45.483430288404314 45.0, 44.22284226812019 45.80357142857143, 43.60483727660911 46.607142857142854, 43.447783211252464 47.410714285714285, 44.05555185567988 48.214285714285715, 44.18477804064484 49.01785714285714, 43.792815110374875 49.82142857142858, 42.94896703315601 50.625, 43.16963254459119 51.42857142857142, 44.08489416644376 52.23214285714286, 45.70128841543976 53.035714285714285, 44.396863962074406 53.839285714285715, 44.43048378834766 54.642857142857146, 44.74167774195809 55.44642857142857, 44.15671876694205 56.25, 43.59697840371853 57.05357142857143, 43.94024053594133 57.857142857142854, 44.70535181027271 58.660714285714285, 44.4749633690104 59.464285714285715, 43.780216924060056 60.267857142857146, 43.997150122674476 61.07142857142857, 44.43986885240248 61.875, 44.18810286044128 62.67857142857143, 44.64871373800371 63.482142857142854, 45.37676725232524 64.28571428571428, 46.21943971967206 65.08928571428572, 46.92815193839352 65.89285714285714, 47.41654630466148 66.69642857142857, 49.21490374570226 67.5, 49.53886772704815 68.30357142857143, 48.3076685182599 69.10714285714285, 48.40272861313514 69.91071428571429, 47.01979083451188 70.71428571428572, 48.26026952706568 71.51785714285714, 47.0897095082565 72.32142857142857, 47.256322390894596 73.125, 47.269049180470766 73.92857142857143, 46.92009331961404 74.73214285714286, 44.774453945072565 75.53571428571429, 45.10599614865466 76.33928571428571, 45.95200198451847 77.14285714285714, 44.45836711828387 77.94642857142857, 36.814646718218604 78.75, 34.07419424510812 79.55357142857143, 33.84589092607291 80.35714285714286, 34.315764682927494 81.16071428571428, 33.85278100960059 81.96428571428571, 32.792739135049295 82.76785714285715, 32.96537532262158 83.57142857142857, 33.259332702207075 84.375, 32.336351933550986 85.17857142857143, 33.03682251854827 85.98214285714285, 33.74753369009822 86.78571428571429, 35.66272244556893 87.58928571428572, 35.28305222333101 88.39285714285714, 34.59722948650158 89.19642857142857, 29.679899612209994 90.0, 30.307587899161327 90.80357142857143, 34.145688352540695 91.60714285714286, 35.878451643348406 92.41071428571429, 36.04320828798588 93.21428571428571, 34.128900105796504 94.01785714285714, 34.255574883052695 94.82142857142857, 34.77906395187229 95.625, 34.84809164815958 96.42857142857143, 32.84798201574527 97.23214285714286, 32.699247661806 98.03571428571428, 28.49154875712141 98.83928571428571, 29.91623355173913 99.64285714285715, 29.564953935421563 100.44642857142857, 30.09785320027595 101.25, 28.851100813014206 102.05357142857143, 29.604672355727164 102.85714285714285, 28.435816156611665 103.66071428571429, 28.41452777811073 104.46428571428572, 28.027611802159356 105.26785714285714, 27.870288202554278 106.07142857142857, 27.578408816334615 106.875, 25.81635450632009 107.67857142857143, 19.91218597394192 108.48214285714286, 17.107663071641767 109.28571428571429, 16.450451308497723 110.08928571428571, 17.1060233296816 110.89285714285714, 13.640263990777537 111.69642857142857, 13.560181918245009 112.5, 13.846968822468565 113.30357142857143, 15.120536307968404 114.10714285714286, 7.356830572444288 114.91071428571428, 6.8188217840184615 115.71428571428571, 3.771836506963211 116.51785714285715, 6.381976872877364 117.32142857142857, 7.42788208120327 118.125, 6.960890947044556 118.92857142857143, 5.358837028823097 119.73214285714285, 3.6703193327502373 120.53571428571429, 3.6970711526173714 121.33928571428572, 2.983315779188199 122.14285714285714, 1.5959051835582831 122.94642857142857, 0.0 123.75, 2.182217011017869 124.55357142857143, 2.8135052628806907 125.35714285714286, 3.903905872815061 126.16071428571429, 2.534976527672616 126.96428571428571, 5.038091840194347 127.76785714285714, 6.149527007264907 128.57142857142856, 6.1656338394692884 129.375, 3.0802663804183354 130.17857142857144, 2.055941715461844 130.98214285714286, 2.8748541991843664 131.78571428571428, 3.693384430100887 132.5892857142857, 2.7905734124451618 133.39285714285714, 4.065535995796707 134.19642857142858, 2.5211761000104587 135.0, 3.654833883276407" fill="none" stroke="#32ca5b" stroke-width="1.25"/>

</svg>